<svg id="mermaid-1625948306888" width="100%" xmlns="http://www.w3.org/2000/svg" xmlns:xlink="http://www.w3.org/1999/xlink" height="612" style="max-width: 497.25px;" viewBox="-20 -20 497.25 612"><style>#mermaid-1625948306888{font-family:"trebuchet ms",verdana,arial,sans-serif;font-size:16px;fill:#333;}#mermaid-1625948306888 .error-icon{fill:#552222;}#mermaid-1625948306888 .error-text{fill:#552222;stroke:#552222;}#mermaid-1625948306888 .edge-thickness-normal{stroke-width:2px;}#mermaid-1625948306888 .edge-thickness-thick{stroke-width:3.5px;}#mermaid-1625948306888 .edge-pattern-solid{stroke-dasharray:0;}#mermaid-1625948306888 .edge-pattern-dashed{stroke-dasharray:3;}#mermaid-1625948306888 .edge-pattern-dotted{stroke-dasharray:2;}#mermaid-1625948306888 .marker{fill:#333333;stroke:#333333;}#mermaid-1625948306888 .marker.cross{stroke:#333333;}#mermaid-1625948306888 svg{font-family:"trebuchet ms",verdana,arial,sans-serif;font-size:16px;}#mermaid-1625948306888 g.classGroup text{fill:#9370DB;fill:#131300;stroke:none;font-family:"trebuchet ms",verdana,arial,sans-serif;font-size:10px;}#mermaid-1625948306888 g.classGroup text .title{font-weight:bolder;}#mermaid-1625948306888 .classTitle{font-weight:bolder;}#mermaid-1625948306888 .node rect,#mermaid-1625948306888 .node circle,#mermaid-1625948306888 .node ellipse,#mermaid-1625948306888 .node polygon,#mermaid-1625948306888 .node path{fill:#ECECFF;stroke:#9370DB;stroke-width:1px;}#mermaid-1625948306888 .divider{stroke:#9370DB;stroke:1;}#mermaid-1625948306888 g.clickable{cursor:pointer;}#mermaid-1625948306888 g.classGroup rect{fill:#ECECFF;stroke:#9370DB;}#mermaid-1625948306888 g.classGroup line{stroke:#9370DB;stroke-width:1;}#mermaid-1625948306888 .classLabel .box{stroke:none;stroke-width:0;fill:#ECECFF;opacity:0.5;}#mermaid-1625948306888 .classLabel .label{fill:#9370DB;font-size:10px;}#mermaid-1625948306888 .relation{stroke:#333333;stroke-width:1;fill:none;}#mermaid-1625948306888 .dashed-line{stroke-dasharray:3;}#mermaid-1625948306888 #compositionStart,#mermaid-1625948306888 .composition{fill:#333333 !important;stroke:#333333 !important;stroke-width:1;}#mermaid-1625948306888 #compositionEnd,#mermaid-1625948306888 .composition{fill:#333333 !important;stroke:#333333 !important;stroke-width:1;}#mermaid-1625948306888 #dependencyStart,#mermaid-1625948306888 .dependency{fill:#333333 !important;stroke:#333333 !important;stroke-width:1;}#mermaid-1625948306888 #dependencyStart,#mermaid-1625948306888 .dependency{fill:#333333 !important;stroke:#333333 !important;stroke-width:1;}#mermaid-1625948306888 #extensionStart,#mermaid-1625948306888 .extension{fill:#333333 !important;stroke:#333333 !important;stroke-width:1;}#mermaid-1625948306888 #extensionEnd,#mermaid-1625948306888 .extension{fill:#333333 !important;stroke:#333333 !important;stroke-width:1;}#mermaid-1625948306888 #aggregationStart,#mermaid-1625948306888 .aggregation{fill:#ECECFF !important;stroke:#333333 !important;stroke-width:1;}#mermaid-1625948306888 #aggregationEnd,#mermaid-1625948306888 .aggregation{fill:#ECECFF !important;stroke:#333333 !important;stroke-width:1;}#mermaid-1625948306888 .edgeTerminals{font-size:11px;}#mermaid-1625948306888:root{--mermaid-font-family:"trebuchet ms",verdana,arial,sans-serif;}#mermaid-1625948306888 class{fill:apa;}</style><g></g><defs><marker id="extensionStart" class="extension" refX="0" refY="7" markerWidth="190" markerHeight="240" orient="auto"><path d="M 1,7 L18,13 V 1 Z"></path></marker></defs><defs><marker id="extensionEnd" refX="19" refY="7" markerWidth="20" markerHeight="28" orient="auto"><path d="M 1,1 V 13 L18,7 Z"></path></marker></defs><defs><marker id="compositionStart" class="extension" refX="0" refY="7" markerWidth="190" markerHeight="240" orient="auto"><path d="M 18,7 L9,13 L1,7 L9,1 Z"></path></marker></defs><defs><marker id="compositionEnd" refX="19" refY="7" markerWidth="20" markerHeight="28" orient="auto"><path d="M 18,7 L9,13 L1,7 L9,1 Z"></path></marker></defs><defs><marker id="aggregationStart" class="extension" refX="0" refY="7" markerWidth="190" markerHeight="240" orient="auto"><path d="M 18,7 L9,13 L1,7 L9,1 Z"></path></marker></defs><defs><marker id="aggregationEnd" refX="19" refY="7" markerWidth="20" markerHeight="28" orient="auto"><path d="M 18,7 L9,13 L1,7 L9,1 Z"></path></marker></defs><defs><marker id="dependencyStart" class="extension" refX="0" refY="7" markerWidth="190" markerHeight="240" orient="auto"><path d="M 5,7 L9,13 L1,7 L9,1 Z"></path></marker></defs><defs><marker id="dependencyEnd" refX="19" refY="7" markerWidth="20" markerHeight="28" orient="auto"><path d="M 18,7 L9,13 L14,7 L9,1 Z"></path></marker></defs><g id="classid-PieceType-0" class="classGroup" transform="translate(162,0 )"><rect x="0" y="0" width="131" height="102" class=" "></rect><text y="15" x="0"><tspan x="30.5">«enumeration»</tspan><tspan class="title" dy="10" x="40">PieceType</tspan></text><line x1="0" y1="32" y2="32" x2="131"></line><text x="5" y="42" fill="white" class="classText"><tspan x="5">KING</tspan><tspan x="5" dy="10">QUEEN</tspan><tspan x="5" dy="10">BISHOP</tspan><tspan x="5" dy="10">KNIGHT</tspan><tspan x="5" dy="10">ROOK</tspan><tspan x="5" dy="10">PAWN</tspan></text><line x1="0" y1="98" y2="98" x2="131"></line><text x="5" y="113" fill="white" class="classText"></text></g><g id="classid-Colour-1" class="classGroup" transform="translate(0,20.5 )"><rect x="0" y="0" width="112" height="61" class=" "></rect><text y="15" x="0"><tspan x="21">«enumeration»</tspan><tspan class="title" dy="10" x="40">Colour</tspan></text><line x1="0" y1="31" y2="31" x2="112"></line><text x="5" y="41" fill="white" class="classText"><tspan x="5">BLACK</tspan><tspan x="5" dy="10">WHITE</tspan></text><line x1="0" y1="57" y2="57" x2="112"></line><text x="5" y="72" fill="white" class="classText"></text></g><g id="classid-Position-2" class="classGroup" transform="translate(355.25,17.5 )"><rect x="0" y="0" width="102" height="67" class=" "></rect><text y="15" x="0"><tspan x="25">«interface»</tspan><tspan class="title" dy="10" x="31">Position</tspan></text><line x1="0" y1="31" y2="31" x2="102"></line><text x="5" y="41" fill="white" class="classText"></text><line x1="0" y1="36" y2="36" x2="102"></line><text x="5" y="51" fill="white" class="classText"><tspan x="5">+String()</tspan><tspan x="5" dy="10">+CellColour()</tspan></text></g><g id="classid-Piece-3" class="classGroup" transform="translate(99.25,152 )"><rect x="0" y="0" width="69" height="61" class=" "></rect><text y="15" x="0"><tspan class="title" x="20.5">Piece</tspan></text><line x1="0" y1="21" y2="21" x2="69"></line><text x="5" y="31" fill="white" class="classText"><tspan x="5">+PieceType</tspan><tspan x="5" dy="10">+Colour</tspan><tspan x="5" dy="10">+Position</tspan></text><line x1="0" y1="57" y2="57" x2="69"></line><text x="5" y="72" fill="white" class="classText"></text></g><g id="classid-Board-4" class="classGroup" transform="translate(22.5,278 )"><rect x="0" y="0" width="87" height="41" class=" "></rect><text y="15" x="0"><tspan class="title" x="29">Board</tspan></text><line x1="0" y1="21" y2="21" x2="87"></line><text x="5" y="31" fill="white" class="classText"><tspan x="5">+Piece[] Pieces</tspan></text><line x1="0" y1="37" y2="37" x2="87"></line><text x="5" y="52" fill="white" class="classText"></text></g><g id="classid-Move-5" class="classGroup" transform="translate(314.5,263 )"><rect x="0" y="0" width="69" height="71" class=" "></rect><text y="15" x="0"><tspan class="title" x="21.5">Move</tspan></text><line x1="0" y1="21" y2="21" x2="69"></line><text x="5" y="31" fill="white" class="classText"><tspan x="5">+PieceType</tspan><tspan x="5" dy="10">+From</tspan><tspan x="5" dy="10">+To</tspan><tspan x="5" dy="10">+Time</tspan></text><line x1="0" y1="67" y2="67" x2="69"></line><text x="5" y="82" fill="white" class="classText"></text></g><g id="classid-RuleSet-6" class="classGroup" transform="translate(133.5,384 )"><rect x="0" y="0" width="203" height="77" class=" "></rect><text y="15" x="0"><tspan class="title" x="82">RuleSet</tspan></text><line x1="0" y1="21" y2="21" x2="203"></line><text x="5" y="31" fill="white" class="classText"></text><line x1="0" y1="26" y2="26" x2="203"></line><text x="5" y="41" fill="white" class="classText"><tspan x="5">+DefaultBoard() : Board</tspan><tspan x="5" dy="10">+AllPositions() : []Position</tspan><tspan x="5" dy="10">+CanMove(Board, Piece, Position) : bool</tspan><tspan x="5" dy="10">+ApplyMove(Board, Move) : Board</tspan></text></g><g id="classid-Match-7" class="classGroup" transform="translate(251.75,511 )"><rect x="0" y="0" width="58" height="61" class=" "></rect><text y="15" x="0"><tspan class="title" x="14.5">Match</tspan></text><line x1="0" y1="21" y2="21" x2="58"></line><text x="5" y="31" fill="white" class="classText"><tspan x="5">+RuleSet</tspan><tspan x="5" dy="10">+Board</tspan><tspan x="5" dy="10">+Moves[]</tspan></text><line x1="0" y1="57" y2="57" x2="58"></line><text x="5" y="72" fill="white" class="classText"></text></g><path d="M203.0065789473684,102L201.00548245614036,106.16666666666667C199.0043859649123,110.33333333333333,195.00219298245614,118.66666666666667,188.70304844318002,127C182.4039039039039,135.33333333333334,173.8078078078078,143.66666666666666,169.50975975975976,147.83333333333334L165.2117117117117,152" id="edge0" class="relation" marker-start="url(#dependencyStart)"></path><path d="M56,81.5L56,89.08333333333333C56,96.66666666666667,56,111.83333333333333,63.208333333333336,124.56216505894963C70.41666666666667,137.29099678456592,84.83333333333333,147.58199356913184,92.04166666666667,152.7274919614148L99.25,157.87299035369776" id="edge1" class="relation" marker-start="url(#dependencyStart)"></path><path d="M369.5542763157895,84.5L361.7952302631579,91.58333333333333C354.0361842105263,98.66666666666667,338.5180921052632,112.83333333333333,304.96737938596493,127.48040510788199C271.4166666666667,142.12747688243064,219.83333333333334,157.2549537648613,194.04166666666666,164.81869220607663L168.25,172.38243064729195" id="edge2" class="relation" marker-start="url(#dependencyStart)"></path><path d="M99.25,210.7619926199262L93.70833333333333,215.30166051660515C88.16666666666667,219.84132841328415,77.08333333333333,228.92066420664207,71.54166666666667,240.1269987699877C66,251.33333333333334,66,264.6666666666667,66,271.3333333333333L66,278" id="edge3" class="relation" marker-start="url(#dependencyStart)"></path><path d="M274.9769736842105,102L278.85581140350877,106.16666666666667C282.734649122807,110.33333333333333,290.4923245614035,118.66666666666667,294.37116228070175,132.08333333333334C298.25,145.5,298.25,164,298.25,182.5C298.25,201,298.25,219.5,301.74517906336087,232.91666666666666C305.2403581267218,246.33333333333334,312.2307162534435,254.66666666666666,315.7258953168044,258.8333333333333L319.2210743801653,263" id="edge4" class="relation" marker-start="url(#dependencyStart)"></path><path d="M390.9325657894737,84.5L387.69380482456137,91.58333333333333C384.45504385964915,98.66666666666667,377.9775219298246,112.83333333333333,374.7387609649123,129.16666666666666C371.5,145.5,371.5,164,371.5,182.5C371.5,201,371.5,219.5,369.95041322314046,232.91666666666666C368.400826446281,246.33333333333334,365.301652892562,254.66666666666666,363.75206611570246,258.8333333333333L362.202479338843,263" id="edge5" class="relation" marker-start="url(#dependencyStart)"></path><path d="M62.611570247933884,319L61.509641873278234,325.6666666666667C60.40771349862259,332.3333333333333,58.20385674931129,345.6666666666667,70.01859504132231,356.9155027932961C81.83333333333333,368.1643389199255,107.66666666666667,377.328677839851,120.58333333333333,381.91084729981384L133.5,386.49301675977654" id="edge6" class="relation" marker-start="url(#dependencyStart)"></path><path d="M168.25,209.00173010380624L174.54166666666666,213.83477508650518C180.83333333333334,218.66782006920417,193.41666666666666,228.3339100346021,199.70833333333334,243.25028835063438C206,258.1666666666667,206,278.3333333333333,206,298.5C206,318.6666666666667,206,338.8333333333333,207.9028871391076,353.0833333333333C209.80577427821524,367.3333333333333,213.61154855643045,375.6666666666667,215.51443569553805,379.8333333333333L217.41732283464566,384" id="edge7" class="relation" marker-start="url(#dependencyStart)"></path><path d="M411.64967105263156,84.5L412.7913925438597,91.58333333333333C413.9331140350877,98.66666666666667,416.2165570175439,112.83333333333333,417.35827850877195,129.16666666666666C418.5,145.5,418.5,164,418.5,182.5C418.5,201,418.5,219.5,418.5,238.83333333333334C418.5,258.1666666666667,418.5,278.3333333333333,418.5,298.5C418.5,318.6666666666667,418.5,338.8333333333333,404.8333333333333,353.64600363306084C391.1666666666667,368.4586739327884,363.8333333333333,377.9173478655768,350.1666666666667,382.64668483197096L336.5,387.3760217983651" id="edge8" class="relation" marker-start="url(#dependencyStart)"></path><path d="M314.5,328.1063829787234L308.5,333.25531914893617C302.5,338.40425531914894,290.5,348.70212765957444,281.6456692913386,358.0177304964539C272.79133858267716,367.3333333333333,267.08267716535437,375.6666666666667,264.2283464566929,379.8333333333333L261.3740157480315,384" id="edge9" class="relation" marker-start="url(#dependencyStart)"></path><path d="M235,461L235,465.1666666666667C235,469.3333333333333,235,477.6666666666667,238.4346846846847,486C241.86936936936937,494.3333333333333,248.73873873873876,502.6666666666667,252.17342342342343,506.8333333333333L255.6081081081081,511" id="edge10" class="relation" marker-start="url(#dependencyStart)"></path><path d="M77.01239669421487,319L80.59366391184572,325.6666666666667C84.17493112947658,332.3333333333333,91.3374655647383,345.6666666666667,94.91873278236915,362.9166666666667C98.5,380.1666666666667,98.5,401.3333333333333,98.5,422.5C98.5,443.6666666666667,98.5,464.8333333333333,124.04166666666667,483.1947873799725C149.58333333333334,501.55624142661173,200.66666666666666,517.1124828532236,226.20833333333334,524.8906035665294L251.75,532.6687242798354" id="edge11" class="relation" marker-start="url(#dependencyStart)"></path><path d="M362.202479338843,334L363.75206611570246,338.1666666666667C365.301652892562,342.3333333333333,368.400826446281,350.6666666666667,369.95041322314046,365.4166666666667C371.5,380.1666666666667,371.5,401.3333333333333,371.5,422.5C371.5,443.6666666666667,371.5,464.8333333333333,361.2083333333333,481.7107438016529C350.9166666666667,498.58815426997245,330.3333333333333,511.17630853994496,320.0416666666667,517.4703856749312L309.75,523.7644628099174" id="edge12" class="relation" marker-start="url(#dependencyStart)"></path></svg>