<svg id="mermaid-0" width="100%" xmlns="http://www.w3.org/2000/svg" xmlns:xlink="http://www.w3.org/1999/xlink" height="621" style="max-width: 656.0625px;" viewBox="-20 -20 656.0625 621"><style>#mermaid-0{font-family:"trebuchet ms",verdana,arial,sans-serif;font-size:16px;fill:#333;}#mermaid-0 .error-icon{fill:#552222;}#mermaid-0 .error-text{fill:#552222;stroke:#552222;}#mermaid-0 .edge-thickness-normal{stroke-width:2px;}#mermaid-0 .edge-thickness-thick{stroke-width:3.5px;}#mermaid-0 .edge-pattern-solid{stroke-dasharray:0;}#mermaid-0 .edge-pattern-dashed{stroke-dasharray:3;}#mermaid-0 .edge-pattern-dotted{stroke-dasharray:2;}#mermaid-0 .marker{fill:#333333;stroke:#333333;}#mermaid-0 .marker.cross{stroke:#333333;}#mermaid-0 svg{font-family:"trebuchet ms",verdana,arial,sans-serif;font-size:16px;}#mermaid-0 g.classGroup text{fill:#9370DB;fill:#131300;stroke:none;font-family:"trebuchet ms",verdana,arial,sans-serif;font-size:10px;}#mermaid-0 g.classGroup text .title{font-weight:bolder;}#mermaid-0 .classTitle{font-weight:bolder;}#mermaid-0 .node rect,#mermaid-0 .node circle,#mermaid-0 .node ellipse,#mermaid-0 .node polygon,#mermaid-0 .node path{fill:#ECECFF;stroke:#9370DB;stroke-width:1px;}#mermaid-0 .divider{stroke:#9370DB;stroke:1;}#mermaid-0 g.clickable{cursor:pointer;}#mermaid-0 g.classGroup rect{fill:#ECECFF;stroke:#9370DB;}#mermaid-0 g.classGroup line{stroke:#9370DB;stroke-width:1;}#mermaid-0 .classLabel .box{stroke:none;stroke-width:0;fill:#ECECFF;opacity:0.5;}#mermaid-0 .classLabel .label{fill:#9370DB;font-size:10px;}#mermaid-0 .relation{stroke:#333333;stroke-width:1;fill:none;}#mermaid-0 .dashed-line{stroke-dasharray:3;}#mermaid-0 #compositionStart,#mermaid-0 .composition{fill:#333333 !important;stroke:#333333 !important;stroke-width:1;}#mermaid-0 #compositionEnd,#mermaid-0 .composition{fill:#333333 !important;stroke:#333333 !important;stroke-width:1;}#mermaid-0 #dependencyStart,#mermaid-0 .dependency{fill:#333333 !important;stroke:#333333 !important;stroke-width:1;}#mermaid-0 #dependencyStart,#mermaid-0 .dependency{fill:#333333 !important;stroke:#333333 !important;stroke-width:1;}#mermaid-0 #extensionStart,#mermaid-0 .extension{fill:#333333 !important;stroke:#333333 !important;stroke-width:1;}#mermaid-0 #extensionEnd,#mermaid-0 .extension{fill:#333333 !important;stroke:#333333 !important;stroke-width:1;}#mermaid-0 #aggregationStart,#mermaid-0 .aggregation{fill:#ECECFF !important;stroke:#333333 !important;stroke-width:1;}#mermaid-0 #aggregationEnd,#mermaid-0 .aggregation{fill:#ECECFF !important;stroke:#333333 !important;stroke-width:1;}#mermaid-0 .edgeTerminals{font-size:11px;}#mermaid-0:root{--mermaid-font-family:"trebuchet ms",verdana,arial,sans-serif;}</style><g></g><defs><marker id="extensionStart" class="extension" refX="0" refY="7" markerWidth="190" markerHeight="240" orient="auto"><path d="M 1,7 L18,13 V 1 Z"></path></marker></defs><defs><marker id="extensionEnd" refX="19" refY="7" markerWidth="20" markerHeight="28" orient="auto"><path d="M 1,1 V 13 L18,7 Z"></path></marker></defs><defs><marker id="compositionStart" class="extension" refX="0" refY="7" markerWidth="190" markerHeight="240" orient="auto"><path d="M 18,7 L9,13 L1,7 L9,1 Z"></path></marker></defs><defs><marker id="compositionEnd" refX="19" refY="7" markerWidth="20" markerHeight="28" orient="auto"><path d="M 18,7 L9,13 L1,7 L9,1 Z"></path></marker></defs><defs><marker id="aggregationStart" class="extension" refX="0" refY="7" markerWidth="190" markerHeight="240" orient="auto"><path d="M 18,7 L9,13 L1,7 L9,1 Z"></path></marker></defs><defs><marker id="aggregationEnd" refX="19" refY="7" markerWidth="20" markerHeight="28" orient="auto"><path d="M 18,7 L9,13 L1,7 L9,1 Z"></path></marker></defs><defs><marker id="dependencyStart" class="extension" refX="0" refY="7" markerWidth="190" markerHeight="240" orient="auto"><path d="M 5,7 L9,13 L1,7 L9,1 Z"></path></marker></defs><defs><marker id="dependencyEnd" refX="19" refY="7" markerWidth="20" markerHeight="28" orient="auto"><path d="M 18,7 L9,13 L14,7 L9,1 Z"></path></marker></defs><g id="classid-PieceType-0" class="classGroup" transform="translate(318.796875,0 )"><rect x="0" y="0" width="125.890625" height="101" class=" "></rect><text y="15" x="0"><tspan x="29.3671875">«enumeration»</tspan><tspan class="title" dy="10" x="38.359375">PieceType</tspan></text><line x1="0" y1="31" y2="31" x2="125.890625"></line><text x="5" y="41" fill="white" class="classText"><tspan x="5">KING</tspan><tspan x="5" dy="10">QUEEN</tspan><tspan x="5" dy="10">BISHOP</tspan><tspan x="5" dy="10">KNIGHT</tspan><tspan x="5" dy="10">ROOK</tspan><tspan x="5" dy="10">PAWN</tspan></text><line x1="0" y1="97" y2="97" x2="125.890625"></line><text x="5" y="112" fill="white" class="classText"></text></g><g id="classid-Colour-1" class="classGroup" transform="translate(494.6875,20 )"><rect x="0" y="0" width="109.046875" height="61" class=" "></rect><text y="15" x="0"><tspan x="20.9453125">«enumeration»</tspan><tspan class="title" dy="10" x="38.359375">Colour</tspan></text><line x1="0" y1="31" y2="31" x2="109.046875"></line><text x="5" y="41" fill="white" class="classText"><tspan x="5">BLACK</tspan><tspan x="5" dy="10">WHITE</tspan></text><line x1="0" y1="57" y2="57" x2="109.046875"></line><text x="5" y="72" fill="white" class="classText"></text></g><g id="classid-Position-2" class="classGroup" transform="translate(59.13671875,12 )"><rect x="0" y="0" width="120.90625" height="77" class=" "></rect><text y="15" x="0"><tspan x="35.4921875">«interface»</tspan><tspan class="title" dy="10" x="40.7265625">Position</tspan></text><line x1="0" y1="31" y2="31" x2="120.90625"></line><text x="5" y="41" fill="white" class="classText"></text><line x1="0" y1="36" y2="36" x2="120.90625"></line><text x="5" y="51" fill="white" class="classText"><tspan x="5">+String()</tspan><tspan x="5" dy="10">+Equals(Position) : bool</tspan><tspan x="5" dy="10">+CellColour()</tspan></text></g><g id="classid-Piece-3" class="classGroup" transform="translate(423.77734375,151 )"><rect x="0" y="0" width="67.984375" height="61" class=" "></rect><text y="15" x="0"><tspan class="title" x="20.703125">Piece</tspan></text><line x1="0" y1="21" y2="21" x2="67.984375"></line><text x="5" y="31" fill="white" class="classText"><tspan x="5">+PieceType</tspan><tspan x="5" dy="10">+Colour</tspan><tspan x="5" dy="10">+Position</tspan></text><line x1="0" y1="57" y2="57" x2="67.984375"></line><text x="5" y="72" fill="white" class="classText"></text></g><g id="classid-Board-4" class="classGroup" transform="translate(484.609375,263.5 )"><rect x="0" y="0" width="131.453125" height="68" class=" "></rect><text y="15" x="0"><tspan class="title" x="51.2734375">Board</tspan></text><line x1="0" y1="21" y2="21" x2="131.453125"></line><text x="5" y="31" fill="white" class="classText"><tspan x="5">+Piece[] Pieces</tspan><tspan x="5" dy="10">+Colour Turn</tspan></text><line x1="0" y1="47" y2="47" x2="131.453125"></line><text x="5" y="62" fill="white" class="classText"><tspan x="5">+At(Position) (Piece, bool)</tspan></text></g><g id="classid-Move-5" class="classGroup" transform="translate(243.34375,262 )"><rect x="0" y="0" width="67.984375" height="71" class=" "></rect><text y="15" x="0"><tspan class="title" x="20.9921875">Move</tspan></text><line x1="0" y1="21" y2="21" x2="67.984375"></line><text x="5" y="31" fill="white" class="classText"><tspan x="5">+PieceType</tspan><tspan x="5" dy="10">+From</tspan><tspan x="5" dy="10">+To</tspan><tspan x="5" dy="10">+Time</tspan></text><line x1="0" y1="67" y2="67" x2="67.984375"></line><text x="5" y="82" fill="white" class="classText"></text></g><g id="classid-RuleSet-6" class="classGroup" transform="translate(287.83984375,383 )"><rect x="0" y="0" width="195.9375" height="87" class=" "></rect><text y="15" x="0"><tspan x="73.0078125">«interface»</tspan><tspan class="title" dy="10" x="79.015625">RuleSet</tspan></text><line x1="0" y1="31" y2="31" x2="195.9375"></line><text x="5" y="41" fill="white" class="classText"></text><line x1="0" y1="36" y2="36" x2="195.9375"></line><text x="5" y="51" fill="white" class="classText"><tspan x="5">+DefaultBoard() : Board</tspan><tspan x="5" dy="10">+AllPositions() : []Position</tspan><tspan x="5" dy="10">+CanMove(Board, Piece, Position) : bool</tspan><tspan x="5" dy="10">+ApplyMove(Board, Move) : Board</tspan></text></g><g id="classid-Match-7" class="classGroup" transform="translate(361.58203125,520 )"><rect x="0" y="0" width="56.640625" height="61" class=" "></rect><text y="15" x="0"><tspan class="title" x="13.8671875">Match</tspan></text><line x1="0" y1="21" y2="21" x2="56.640625"></line><text x="5" y="31" fill="white" class="classText"><tspan x="5">+RuleSet</tspan><tspan x="5" dy="10">+Board</tspan><tspan x="5" dy="10">+Moves[]</tspan></text><line x1="0" y1="57" y2="57" x2="56.640625"></line><text x="5" y="72" fill="white" class="classText"></text></g><g id="classid-Boring2D-8" class="classGroup" transform="translate(243.0078125,535.5 )"><rect x="0" y="0" width="55" height="30" class=" "></rect><text y="15" x="0"><tspan class="title" x="5">Boring2D</tspan></text><line x1="0" y1="21" y2="21" x2="55"></line><text x="5" y="31" fill="white" class="classText"></text><line x1="0" y1="26" y2="26" x2="55"></line><text x="5" y="41" fill="white" class="classText"></text></g><g id="classid-Chesseract-9" class="classGroup" transform="translate(126.828125,535.5 )"><rect x="0" y="0" width="64.59375" height="30" class=" "></rect><text y="15" x="0"><tspan class="title" x="5">Chesseract</tspan></text><line x1="0" y1="21" y2="21" x2="64.59375"></line><text x="5" y="31" fill="white" class="classText"></text><line x1="0" y1="26" y2="26" x2="64.59375"></line><text x="5" y="41" fill="white" class="classText"></text></g><g id="classid-position2D-10" class="classGroup" transform="translate(111.671875,166.5 )"><rect x="0" y="0" width="61.671875" height="30" class=" "></rect><text y="15" x="0"><tspan class="title" x="5">position2D</tspan></text><line x1="0" y1="21" y2="21" x2="61.671875"></line><text x="5" y="31" fill="white" class="classText"></text><line x1="0" y1="26" y2="26" x2="61.671875"></line><text x="5" y="41" fill="white" class="classText"></text></g><g id="classid-position4D-11" class="classGroup" transform="translate(0,166.5 )"><rect x="0" y="0" width="61.671875" height="30" class=" "></rect><text y="15" x="0"><tspan class="title" x="5">position4D</tspan></text><line x1="0" y1="21" y2="21" x2="61.671875"></line><text x="5" y="31" fill="white" class="classText"></text><line x1="0" y1="26" y2="26" x2="61.671875"></line><text x="5" y="41" fill="white" class="classText"></text></g><path d="M404.81573365066225,101L406.7194915838852,105.16666666666667C408.62324951710815,109.33333333333333,412.43076538355405,117.66666666666667,417.4524850284888,126C422.4742046734234,134.33333333333334,428.7101280968468,142.66666666666666,431.82808980855856,146.83333333333334L434.94605152027026,151" id="edge0" class="relation" marker-start="url(#dependencyStart)"></path><path d="M549.2109375,81L549.2109375,88.5C549.2109375,96,549.2109375,111,539.6360677083334,124.31142936477424C530.0611979166666,137.62285872954848,510.9114583333333,149.24571745909694,501.3365885416667,155.05714682387116L491.76171875,160.8685761886454" id="edge1" class="relation" marker-start="url(#dependencyStart)"></path><path d="M180.04296875,80.28277936378467L195.50911458333334,87.90231613648723C210.97526041666666,95.52185290918978,241.90755208333334,110.7609264545949,282.5299479166667,125.93020764029227C323.15234375,141.0994888259896,373.46484375,156.19897765197922,398.62109375,163.748722064974L423.77734375,171.29846647796882" id="edge2" class="relation" marker-start="url(#dependencyStart)"></path><path d="M491.76171875,201.88068109887328L501.5240885416667,207.73390091572773C511.2864583333333,213.5871207325822,530.8111979166666,225.2935603662911,540.5735677083334,235.5634468498122C550.3359375,245.83333333333334,550.3359375,254.66666666666666,550.3359375,259.0833333333333L550.3359375,263.5" id="edge3" class="relation" marker-start="url(#dependencyStart)"></path><path d="M325.2850269039735,101L320.62684533664464,105.16666666666667C315.9686637693157,109.33333333333333,306.6523006346578,117.66666666666667,301.99411906732894,131.08333333333334C297.3359375,144.5,297.3359375,163,297.3359375,181.5C297.3359375,200,297.3359375,218.5,295.95852703168043,231.91666666666666C294.58111656336087,245.33333333333334,291.8262956267218,253.66666666666666,290.4488851584022,257.8333333333333L289.07147469008265,262" id="edge4" class="relation" marker-start="url(#dependencyStart)"></path><path d="M180.04296875,84.75299015009381L192.17578125,91.62749179174484C204.30859375,98.50199343339587,228.57421875,112.25099671669794,240.70703125,128.37549835834898C252.83984375,144.5,252.83984375,163,252.83984375,181.5C252.83984375,200,252.83984375,218.5,254.52690254820936,231.91666666666666C256.2139613464187,245.33333333333334,259.58807894283746,253.66666666666666,261.2751377410468,257.8333333333333L262.9621965392562,262" id="edge5" class="relation" marker-start="url(#dependencyStart)"></path><path d="M555.9557722107438,331.5L556.6857997589532,335.9166666666667C557.4158273071625,340.3333333333333,558.8758824035813,349.1666666666667,546.8461443267906,358.5913964054701C534.81640625,368.0161261442736,509.296875,378.03225228854717,496.537109375,383.040315360684L483.77734375,388.0483784328208" id="edge6" class="relation" marker-start="url(#dependencyStart)"></path><path d="M429.33248873873873,212L425.4476468656156,216.16666666666666C421.56280499249243,220.33333333333334,413.79312124624624,228.66666666666666,409.90827937312315,242.91666666666666C406.0234375,257.1666666666667,406.0234375,277.3333333333333,406.0234375,297.5C406.0234375,317.6666666666667,406.0234375,337.8333333333333,404.7938241332117,352.0833333333333C403.5642107664234,366.3333333333333,401.10498403284674,374.6666666666667,399.8753706660584,378.8333333333333L398.6457572992701,383" id="edge7" class="relation" marker-start="url(#dependencyStart)"></path><path d="M164.84845819536423,89L172.09767349613685,95.16666666666667C179.3468887969095,101.33333333333333,193.84531939845473,113.66666666666667,201.09453469922735,129.08333333333334C208.34375,144.5,208.34375,163,208.34375,181.5C208.34375,200,208.34375,218.5,208.34375,237.83333333333334C208.34375,257.1666666666667,208.34375,277.3333333333333,208.34375,297.5C208.34375,317.6666666666667,208.34375,337.8333333333333,221.59309895833334,353.0308086255347C234.84244791666666,368.228283917736,261.3411458333333,378.4565678354721,274.5904947916667,383.5707097943401L287.83984375,388.68485175320814" id="edge8" class="relation" marker-start="url(#dependencyStart)"></path><path d="M311.328125,328.432491186839L316.7434895833333,333.3604093223658C322.1588541666667,338.28832745789265,332.9895833333333,348.1441637289463,340.958979622871,357.23874853113983C348.92837591240874,366.3333333333333,354.03643932481754,374.6666666666667,356.59047103102193,378.8333333333333L359.1445027372263,383" id="edge9" class="relation" marker-start="url(#dependencyStart)"></path><path d="M430.6282789689781,470L434.92135226581513,474.1666666666667C439.214425562652,478.3333333333333,447.80057215632604,486.6666666666667,445.7329683698297,496.143115942029C443.6653645833333,505.6195652173913,430.9440104166667,516.2391304347826,424.5833333333333,521.5489130434783L418.22265625,526.8586956521739" id="edge10" class="relation" marker-start="url(#dependencyStart)"></path><path d="M534.9011492768595,331.5L532.896140022383,335.9166666666667C530.8911307679064,340.3333333333333,526.8811122589532,349.1666666666667,524.8761030044766,365C522.87109375,380.8333333333333,522.87109375,403.6666666666667,522.87109375,426.5C522.87109375,449.3333333333333,522.87109375,472.1666666666667,505.4296875,490.8632246376812C487.98828125,509.5597826086957,453.10546875,524.1195652173914,435.6640625,531.3994565217391L418.22265625,538.679347826087" id="edge11" class="relation" marker-start="url(#dependencyStart)"></path><path d="M262.9621965392562,333L261.2751377410468,337.1666666666667C259.58807894283746,341.3333333333333,256.2139613464187,349.6666666666667,254.52690254820936,365.25C252.83984375,380.8333333333333,252.83984375,403.6666666666667,252.83984375,426.5C252.83984375,449.3333333333333,252.83984375,472.1666666666667,270.9635416666667,490.922067373461C289.0872395833333,509.6774680802553,325.3346354166667,524.3549361605106,343.4583333333333,531.6936702006384L361.58203125,539.032404240766" id="edge12" class="relation" marker-start="url(#dependencyStart)"></path><path d="M388.4082744069343,470L388.6572859641119,474.1666666666667C388.90629752128956,478.3333333333333,389.40432063564475,486.6666666666667,374.33757698448903,497.9527918643328C359.2708333333333,509.238917061999,328.6393229166667,523.477834123998,313.3235677083333,530.5972926549975L298.0078125,537.716751185997" id="edge13" class="relation" marker-start="url(#extensionStart)"></path><path d="M346.1882698448905,470L342.39321966240874,474.1666666666667C338.598169479927,478.3333333333333,331.0080691149635,486.6666666666667,305.21366997414844,498.2649591446936C279.4192708333333,509.8632516227205,235.42057291666666,524.726503245441,213.42122395833334,532.1581290568012L191.421875,539.5897548681614" id="edge14" class="relation" marker-start="url(#extensionStart)"></path><path d="M131.27649006622516,89L133.14837713852097,95.16666666666667C135.02026421081678,101.33333333333333,138.7640383554084,113.66666666666667,140.6359254277042,126.58333333333333C142.5078125,139.5,142.5078125,153,142.5078125,159.75L142.5078125,166.5" id="edge15" class="relation" marker-start="url(#extensionStart)"></path><path d="M74.33122930463577,89L67.08201400386314,95.16666666666667C59.83279870309051,101.33333333333333,45.33436810154526,113.66666666666667,38.085152800772626,126.58333333333333C30.8359375,139.5,30.8359375,153,30.8359375,159.75L30.8359375,166.5" id="edge16" class="relation" marker-start="url(#extensionStart)"></path></svg>