# Blender v2.93.4 OBJ File: ''
# www.blender.org
mtllib square.mtl
v 0.500000 0.000000 -0.500000
v 0.500000 -0.050000 -0.500000
v 0.500000 0.000000 0.500000
v 0.500000 -0.050000 0.500000
v -0.500000 0.000000 -0.500000
v -0.500000 -0.050000 -0.500000
v -0.500000 0.000000 0.500000
v -0.500000 -0.050000 0.500000
vt 0.0 0.0
vt 0.75 0.0
vt 0.75 0.75
vt 0.0 0.75
vt 0.75 1.0
vt 0.0 1.0
vt 0.0 0.875
vt 0.75 0.875
vt 1.0 0.0
vt 1.0 0.75
vt 0.875 0.75
vt 0.875 0.0
vt 0.75 0.75
vt 1.0 0.75
vt 1.0 1.0
vt 0.75 1.0
vt 0.75 0.875
vt 0.0 0.875
vt 0.0 0.75
vt 0.75 0.75
vt 0.875 0.0
vt 0.875 0.75
vt 0.75 0.75
vt 0.75 0.0
vn 0.0000 1.0000 0.0000
vn 0.0000 0.0000 1.0000
vn -1.0000 0.0000 0.0000
vn 0.0000 -1.0000 0.0000
vn 1.0000 0.0000 0.0000
vn 0.0000 0.0000 -1.0000
usemtl Material
s off
f 1/1/1 5/2/1 7/3/1 3/4/1
f 4/5/2 3/6/2 7/7/2 8/8/2
f 8/9/3 7/10/3 5/11/3 6/12/3
f 6/13/4 2/14/4 4/15/4 8/16/4
f 2/17/5 1/18/5 3/19/5 4/20/5
f 6/21/6 5/22/6 1/23/6 2/24/6
